<svg xmlns="http://www.w3.org/2000/svg" viewBox="-1024 -352 3072 1728">
  <rect fill="#f9fafb" x="-1024" y="-352" width="3072" height="1728"></rect>
  <path
    fill="rgba(0, 0, 0, 0.54)"
    d="M928 160H96c-17.7 0-32 14.3-32 32v640c0 17.7 14.3 32 32 32h832c17.7 0 32-14.3 32-32V192c0-17.7-14.3-32-32-32zM338 304c35.3 0 64 28.7 64 64s-28.7 64-64 64-64-28.7-64-64 28.7-64 64-64zm513.9 437.1a8.11 8.11 0 01-5.2 1.9H177.2c-4.4 0-8-3.6-8-8 0-1.9.7-3.7 1.9-5.2l170.3-202c2.8-3.4 7.9-3.8 11.3-1 .3.3.7.6 1 1l99.4 118 158.1-187.5c2.8-3.4 7.9-3.8 11.3-1 .3.3.7.6 1 1l229.6 271.6c2.6 3.3 2.2 8.4-1.2 11.2z"
  >
  </path>
</svg>